<?xml version="1.0" encoding="iso-8859-1"?>
<!-- Generator: Adobe Illustrator 19.1.0, SVG Export Plug-In . SVG Version: 6.00 Build 0)  -->
<svg version="1.1" id="Capa_1" xmlns="http://www.w3.org/2000/svg" xmlns:xlink="http://www.w3.org/1999/xlink" x="0px" y="0px"
	 viewBox="0 0 477.297 477.297" style="enable-background:new 0 0 477.297 477.297;" xml:space="preserve">
<g>
	<g id="XMLID_822_">
		<path id="XMLID_1548_" d="M35.424,182.3c0,53.2,22.8,101,59.1,134.3V413v6.7v8.4c0,7.3,5.8,14.2,13,15.5l189.5,33.5
			c7,1.2,12.7-3.2,13-10l0,0v-0.4l0.1-52.6l52.6,7.8c21.1,0,38.3-17.2,38.3-38.3v-36.1v-30.8v-0.4h17.4c20.2,0,29.1-14.6,19.7-32.5
			l-37.1-70.9V207v-24.4l0,0c0-73.1-43.2-136.2-105.4-165.1c-23.6-11.2-50-17.5-77.9-17.5C117.024,0.1,35.424,81.7,35.424,182.3z
			 M83.224,182.7c0-74.9,60.7-135.6,135.6-135.6s135.6,60.7,135.6,135.6s-60.7,135.6-135.6,135.6S83.224,257.6,83.224,182.7z"/>
		<path id="XMLID_1567_" d="M218.824,79.1c10.2,0,18.5,8.3,18.5,18.5s-8.3,18.5-18.5,18.5c-36.6,0-66.4,29.8-66.4,66.4
			c0,10.2-8.3,18.5-18.5,18.5s-18.5-8.3-18.5-18.5C115.324,125.6,161.724,79.1,218.824,79.1z"/>
	</g>
</g>
<g>
</g>
<g>
</g>
<g>
</g>
<g>
</g>
<g>
</g>
<g>
</g>
<g>
</g>
<g>
</g>
<g>
</g>
<g>
</g>
<g>
</g>
<g>
</g>
<g>
</g>
<g>
</g>
<g>
</g>
</svg>
